<mxfile host="app.diagrams.net" modified="2023-07-25T18:05:24.923Z" agent="Mozilla/5.0 (Windows NT 10.0; Win64; x64) AppleWebKit/537.36 (KHTML, like Gecko) Chrome/113.0.0.0 Safari/537.36 OPR/99.0.0.0 (Edition Yx GX)" version="21.6.5" etag="GHrG1R48o-UVJthlbQaR" type="github">
  <diagram name="Страница 1" id="Do2oH-n4V9BA1OCUkbhD">
    <mxGraphModel>
      <root>
        <mxCell id="0" />
        <mxCell id="1" parent="0" />
      </root>
    </mxGraphModel>
  </diagram>
</mxfile>
